<svg width="32" height="32" viewBox="0 0 32 32" fill="none" xmlns="http://www.w3.org/2000/svg">
<path d="M26 5H6C5.44772 5 5 5.44772 5 6V26C5 26.5523 5.44772 27 6 27H26C26.5523 27 27 26.5523 27 26V6C27 5.44772 26.5523 5 26 5Z" stroke="black" stroke-width="1.5" stroke-linecap="round" stroke-linejoin="round"/>
<path d="M15 14.0001V22.0001" stroke="black" stroke-width="1.5" stroke-linecap="round" stroke-linejoin="round"/>
<path d="M11 14.0001V22.0001" stroke="black" stroke-width="1.5" stroke-linecap="round" stroke-linejoin="round"/>
<path d="M15 17.5001C15 16.5719 15.3687 15.6816 16.0251 15.0252C16.6815 14.3689 17.5717 14.0001 18.5 14.0001C19.4283 14.0001 20.3185 14.3689 20.9749 15.0252C21.6313 15.6816 22 16.5719 22 17.5001V22.0001" stroke="black" stroke-width="1.5" stroke-linecap="round" stroke-linejoin="round"/>
<path d="M11 11.25C11.6904 11.25 12.25 10.6904 12.25 10C12.25 9.30964 11.6904 8.75 11 8.75C10.3096 8.75 9.75 9.30964 9.75 10C9.75 10.6904 10.3096 11.25 11 11.25Z" fill="black"/>
</svg>
