<svg width="408" height="23" viewBox="0 0 408 23" fill="none" xmlns="http://www.w3.org/2000/svg">
<path d="M29.7953 0.601911L27.8919 6.58863V6.62116L22.743 22.7593H21.8483V22.7918V22.7593H21.8157V22.7267L14.8529 5.86469L9.35424 22.7837H8.51643L1.92779 5.72641V5.69387L0 0.626312H3.85558L4.71779 3.04215C4.71779 3.08282 4.73406 3.13976 4.77473 3.21296L6.01112 6.63743L10.07 17.83L15.7395 0.341619L16.6587 0.309082L23.4751 17.4558L27.3307 5.08381L28.7379 0.593775H29.7953V0.601911Z" fill="white"/>
<path d="M36.5311 22.3281H33.1392V0.61H36.5311V10.5092L48.4964 10.4767V0.601868H51.8883V22.32H48.4964V11.3389L36.5311 11.3064V22.3281Z" fill="white"/>
<path d="M59.5985 22.3282H56.2065V0.610046H59.5985V22.3282Z" fill="white"/>
<path d="M83.3342 0.601868V1.49662H74.9886V22.2956H71.5397V1.49662H63.1128V0.601868H83.3342Z" fill="white"/>
<path d="M86.9287 0.658813H100.797V1.55357H90.3532V10.3547H98.5849V11.1925H90.3288V21.4659H100.74V22.3607H86.9287V0.658813V0.658813Z" fill="white"/>
<path d="M135.092 1.00862C135.856 1.17944 136.572 1.38279 137.223 1.61054C137.931 1.87897 138.508 2.1474 138.947 2.41582V4.02638C138.809 3.79862 138.565 3.57087 138.199 3.35125C137.833 3.13163 137.418 2.92827 136.946 2.73305C136.475 2.53783 135.986 2.36702 135.482 2.21247C134.97 2.05792 134.506 1.92778 134.083 1.80576C133.392 1.65122 132.692 1.53734 131.984 1.46413C131.374 1.40719 130.707 1.38279 130 1.39093C129.292 1.39906 128.601 1.51294 127.926 1.72442C127.755 1.76509 127.584 1.8139 127.421 1.87897C127.259 1.94404 127.096 2.01725 126.949 2.09859C125.916 2.59477 125.054 3.27804 124.363 4.14026C123.655 5.00247 123.094 6.06804 122.695 7.33697C122.484 7.94703 122.337 8.60589 122.248 9.28916C122.158 9.98056 122.118 10.6964 122.118 11.4447C122.118 12.193 122.158 12.9088 122.248 13.6002C122.337 14.2916 122.484 14.9424 122.695 15.5524C123.102 16.797 123.655 17.8625 124.363 18.7491C125.054 19.6114 125.916 20.2946 126.949 20.7908C127.755 21.1731 128.698 21.4009 129.772 21.4822C130.846 21.5554 131.944 21.5147 133.066 21.3358C134.189 21.165 135.271 20.8966 136.304 20.5305C137.337 20.1645 138.223 19.7252 138.947 19.2047V20.4736C138.044 20.9942 137.028 21.409 135.897 21.7425C134.766 22.0679 133.603 22.2875 132.399 22.3932C131.204 22.499 130 22.4908 128.788 22.377C127.576 22.2631 126.445 22.0109 125.396 21.6286C123.915 21.108 122.655 20.376 121.597 19.4161C120.54 18.4726 119.726 17.3175 119.149 15.9347C118.571 14.5926 118.287 13.0959 118.287 11.4447C118.287 9.79348 118.571 8.28866 119.149 6.93026C119.434 6.25513 119.783 5.63694 120.182 5.05941C120.589 4.48189 121.052 3.95317 121.589 3.47326C122.647 2.51343 123.907 1.77323 125.388 1.26078C126.844 0.740192 128.487 0.488037 130.309 0.488037C130.691 0.488037 131.082 0.496169 131.488 0.520571C131.895 0.536839 132.302 0.569376 132.725 0.610047C133.131 0.666986 133.522 0.723927 133.92 0.780866C134.319 0.837805 134.709 0.911011 135.092 1.00862Z" fill="white"/>
<path d="M161.763 11.77C161.707 13.2667 161.446 14.6251 160.991 15.8534C160.82 16.2926 160.625 16.7156 160.397 17.1223C160.177 17.529 159.933 17.9113 159.665 18.2773C159.527 18.4725 159.388 18.6434 159.25 18.806C159.104 18.9687 158.957 19.1233 158.803 19.2778C158.689 19.3917 158.575 19.5137 158.461 19.6357C158.347 19.7577 158.209 19.8716 158.054 19.9692C157.168 20.6769 156.2 21.2137 155.134 21.5635C154.069 21.9214 152.987 22.0841 151.897 22.0678C150.807 22.0516 149.717 21.8401 148.643 21.4496C147.569 21.0592 146.593 20.4654 145.707 19.6764C145.633 19.6195 145.56 19.5544 145.495 19.4893C145.43 19.4242 145.357 19.351 145.276 19.2697C144.332 18.3343 143.608 17.1874 143.088 15.8452C142.876 15.2514 142.705 14.6332 142.583 13.9906C142.461 13.3481 142.372 12.6079 142.307 11.7619V11.4772V11.2169C142.364 9.73651 142.624 8.3781 143.088 7.13358C143.608 5.79145 144.332 4.65268 145.276 3.70912C145.349 3.63591 145.422 3.5627 145.495 3.48949C145.56 3.42442 145.633 3.35935 145.707 3.30241C146.3 2.78183 146.984 2.32632 147.748 1.93588C148.513 1.54544 149.31 1.24448 150.14 1.03299C150.847 0.862173 151.571 0.788967 152.312 0.821503C153.052 0.85404 153.776 0.959783 154.483 1.155C155.191 1.35022 155.882 1.62678 156.541 1.99282C157.2 2.35885 157.81 2.7981 158.372 3.31868C158.445 3.37562 158.518 3.44069 158.591 3.50576C158.656 3.57084 158.729 3.64404 158.811 3.72539C159.274 4.2053 159.681 4.72588 160.047 5.29527C160.413 5.86466 160.73 6.48285 160.999 7.14985C161.462 8.39437 161.715 9.76091 161.772 11.2332V11.77H161.763ZM157.786 15.4792C157.957 14.8691 158.087 14.2265 158.16 13.5677C158.233 12.9088 158.282 12.2093 158.306 11.4853C158.29 10.7533 158.241 10.0619 158.16 9.403C158.087 8.74414 157.957 8.10968 157.786 7.51589C157.444 6.3039 156.948 5.2546 156.322 4.35171C155.647 3.4895 154.882 2.81436 154.02 2.33445C153.979 2.31818 153.898 2.27751 153.759 2.22057C153.621 2.16363 153.467 2.09856 153.288 2.03349C153.109 1.96841 152.905 1.91147 152.686 1.86267C152.466 1.81387 152.238 1.78946 152.011 1.78946C151.531 1.80573 151.091 1.89521 150.701 2.04975C150.311 2.2043 150.091 2.30191 150.05 2.33445C149.188 2.81436 148.424 3.48136 147.748 4.35171C147.114 5.2546 146.626 6.3039 146.284 7.51589C145.943 8.70347 145.764 10.0293 145.764 11.4853C145.764 12.9413 145.934 14.2753 146.284 15.4873C146.626 16.7156 147.122 17.7568 147.748 18.619C147.822 18.7328 147.968 18.9037 148.163 19.1396C148.367 19.3673 148.635 19.6113 148.985 19.8554C149.326 20.1075 149.733 20.319 150.205 20.5061C150.677 20.685 151.23 20.7826 151.856 20.7826C152.548 20.7826 153.149 20.6932 153.67 20.5061C154.191 20.3271 154.63 20.1075 154.996 19.8554C155.362 19.6032 155.655 19.3673 155.874 19.1396C156.094 18.9118 156.24 18.7328 156.322 18.619C156.533 18.3343 156.728 18.0333 156.899 17.7161C157.07 17.3988 157.233 17.0491 157.387 16.6668C157.461 16.4716 157.534 16.2845 157.607 16.0893C157.672 15.894 157.729 15.6907 157.786 15.4792Z" fill="white"/>
<path d="M168.693 21.409H179.398V22.3607H165.505V0.658813H168.702V21.409H168.693Z" fill="white"/>
<path d="M186.816 21.409H197.521V22.3607H183.628V0.658813H186.825V21.409H186.816Z" fill="white"/>
<path d="M219.557 22.1818H215.701L212.537 14.674C212.496 14.5764 212.439 14.5275 212.366 14.5275H204.687C204.59 14.5275 204.525 14.5764 204.484 14.674L201.751 22.1818H200.604L209.031 0H209.836L219.557 22.1818ZM212.106 13.6409L208.25 4.49004C207.697 5.97045 207.225 7.21497 206.851 8.23173C206.477 9.2485 206.168 10.0863 205.932 10.7452C205.688 11.404 205.501 11.9246 205.371 12.2988C205.232 12.673 205.135 12.9495 205.07 13.1366C205.005 13.3156 204.956 13.4376 204.939 13.4945C204.923 13.5515 204.899 13.6003 204.883 13.6409H212.106Z" fill="white"/>
<path d="M241.535 22.3281L241.592 22.385H237.272L235.548 20.14L232.27 15.8289C232.115 15.6337 231.977 15.4548 231.855 15.284C231.733 15.1131 231.603 14.9423 231.465 14.7634C231.025 14.1696 230.635 13.649 230.302 13.2098C229.968 12.7705 229.675 12.3963 229.423 12.0872H226.462V22.385H223.07V0.634399H231.009C232.14 0.634399 233.197 0.77268 234.173 1.04111C235.133 1.30953 235.938 1.69183 236.589 2.19615C237.256 2.67606 237.785 3.26172 238.175 3.95312C238.541 4.62825 238.72 5.39286 238.72 6.25508C238.72 7.63788 238.24 8.79292 237.281 9.71208C236.305 10.6719 234.979 11.3308 233.311 11.6968L237.801 17.472V17.5046C238.053 17.8299 238.297 18.1553 238.55 18.4807C238.802 18.806 239.054 19.1395 239.322 19.4893C239.729 20.0099 240.038 20.4085 240.274 20.6931C240.29 20.7338 240.307 20.7582 240.315 20.7664C240.323 20.7745 240.339 20.7989 240.355 20.8396L241.535 22.3281ZM230.09 11.1925C231.587 11.1925 232.782 10.737 233.685 9.83409C234.588 8.94747 235.036 7.75989 235.036 6.25508C235.036 4.83161 234.67 3.67656 233.946 2.78994C233.197 1.94399 232.221 1.52102 231.009 1.52102H226.405V11.1844H230.09V11.1925Z" fill="white"/>
<path d="M263.001 21.409H273.706V22.3607H259.812V0.658813H263.009V21.409H263.001Z" fill="white"/>
<path d="M295.741 22.1818H291.885L288.721 14.674C288.68 14.5764 288.623 14.5275 288.55 14.5275H280.871C280.774 14.5275 280.709 14.5764 280.668 14.674L277.935 22.1818H276.788L285.215 0H286.02L295.741 22.1818ZM288.29 13.6409L284.434 4.49004C283.881 5.97045 283.409 7.21497 283.035 8.23173C282.661 9.2485 282.352 10.0863 282.116 10.7452C281.872 11.404 281.685 11.9246 281.555 12.2988C281.416 12.673 281.319 12.9495 281.254 13.1366C281.189 13.3156 281.14 13.4376 281.124 13.4945C281.107 13.5515 281.083 13.6003 281.067 13.6409H288.29Z" fill="white"/>
<path d="M327.903 0.601911L326 6.58863V6.62116L320.851 22.7593H319.956V22.7918V22.7593H319.924V22.7267L312.961 5.86469L307.462 22.7837H306.624L300.036 5.72641V5.69387L298.108 0.626312H301.964L302.826 3.04215C302.826 3.08282 302.842 3.13976 302.883 3.21296L304.119 6.63743L308.178 17.83L313.847 0.341619L314.767 0.309082L321.583 17.4558L325.439 5.08381L326.846 0.593775H327.903V0.601911Z" fill="white"/>
<path d="M348.36 0.634466H349.255C348.946 1.07371 348.686 1.46415 348.466 1.79765C348.246 2.13115 348.011 2.48091 347.758 2.84695C347.506 3.21298 347.23 3.61969 346.912 4.08333C346.595 4.54698 346.205 5.11637 345.749 5.80777C345.286 6.49917 344.724 7.34512 344.049 8.33748C343.374 9.33798 342.561 10.5418 341.601 11.9653V22.32H338.176V20.1645C338.176 19.4162 338.168 18.4645 338.16 17.3013C338.152 16.1381 338.144 14.7146 338.144 13.0309L330.579 0.601929H334.776L341.243 11.2495L348.36 0.634466Z" fill="white"/>
<path d="M352.558 0.658813H366.426V1.55357H355.982V10.3547H364.214V11.1925H355.958V21.4659H366.369V22.3607H352.558V0.658813V0.658813Z" fill="white"/>
<path d="M389.56 22.3281L389.617 22.385H385.297L383.573 20.14L380.295 15.8289C380.14 15.6337 380.002 15.4548 379.88 15.284C379.758 15.1131 379.628 14.9423 379.49 14.7634C379.05 14.1696 378.66 13.649 378.326 13.2098C377.993 12.7705 377.7 12.3963 377.448 12.0872H374.487V22.385H371.095V0.634399H379.034C380.165 0.634399 381.222 0.77268 382.198 1.04111C383.158 1.30953 383.963 1.69183 384.614 2.19615C385.281 2.67606 385.81 3.26172 386.2 3.95312C386.566 4.62825 386.745 5.39286 386.745 6.25508C386.745 7.63788 386.265 8.79292 385.306 9.71208C384.329 10.6719 383.004 11.3308 381.336 11.6968L385.826 17.472V17.5046C386.078 17.8299 386.322 18.1553 386.574 18.4807C386.827 18.806 387.079 19.1395 387.347 19.4893C387.754 20.0099 388.063 20.4085 388.299 20.6931C388.315 20.7338 388.331 20.7582 388.34 20.7664C388.348 20.7745 388.364 20.7989 388.38 20.8396L389.56 22.3281ZM378.107 11.1925C379.604 11.1925 380.799 10.737 381.702 9.83409C382.605 8.94747 383.052 7.75989 383.052 6.25508C383.052 4.83161 382.686 3.67656 381.962 2.78994C381.214 1.94399 380.238 1.52102 379.026 1.52102H374.422V11.1844H378.107V11.1925Z" fill="white"/>
<path d="M406.333 12.5754C406.87 13.1122 407.284 13.6979 407.569 14.3323C407.854 14.9668 408 15.6256 408 16.317C408 17.2606 407.829 18.0984 407.48 18.8468C407.114 19.5951 406.617 20.2377 405.983 20.7746C405.332 21.3114 404.551 21.7181 403.657 21.9947C402.794 22.2875 401.794 22.442 400.663 22.442C400.322 22.442 399.972 22.4339 399.614 22.4095C399.256 22.3932 398.898 22.3607 398.532 22.32C398.166 22.2794 397.816 22.2387 397.483 22.198C397.149 22.1492 396.816 22.0923 396.49 22.0191C395.88 21.9052 395.27 21.7506 394.677 21.5473C394.066 21.3358 393.57 21.1243 393.212 20.9128V19.0989C393.806 19.5951 394.416 20.0018 395.043 20.319C395.669 20.6363 396.279 20.8884 396.881 21.0674C397.483 21.2463 398.068 21.3765 398.638 21.4416C399.207 21.5066 399.72 21.5392 400.175 21.5392C400.232 21.5554 400.322 21.5717 400.436 21.5717H400.639C401.233 21.5717 401.778 21.5148 402.282 21.4009H402.314C402.99 21.2301 403.616 20.9291 404.21 20.5061C405.088 19.7985 405.536 18.863 405.536 17.7161C405.536 17.1955 405.381 16.7156 405.072 16.2764C404.804 15.8534 404.381 15.4142 403.803 14.9505C403.226 14.4869 402.567 14.0964 401.818 13.7711C401.029 13.405 400.167 13.0878 399.232 12.8194C398.923 12.7218 398.63 12.6242 398.337 12.5347C398.052 12.4371 397.768 12.3232 397.499 12.193L396.808 11.8514C396.059 11.4447 395.425 10.9892 394.912 10.4686C394.376 9.93176 393.985 9.37864 393.733 8.80112C393.448 8.20733 393.302 7.58913 393.302 6.96281C393.302 6.00298 393.473 5.12449 393.822 4.31921C394.205 3.47327 394.701 2.78187 395.319 2.24501C395.644 1.96032 395.994 1.70003 396.368 1.4804C396.743 1.26078 397.157 1.0737 397.621 0.91915C398.483 0.610053 399.484 0.455505 400.614 0.455505C401.135 0.455505 401.647 0.488042 402.168 0.544981C402.689 0.60192 403.226 0.707663 403.779 0.862212C404.909 1.14691 405.869 1.53734 406.658 2.00912V3.15603C406.43 2.92828 406.081 2.69239 405.625 2.44837C405.161 2.20434 404.641 2.00099 404.055 1.83017C403.47 1.65935 402.843 1.52107 402.184 1.42347C401.525 1.32586 400.883 1.29332 400.257 1.32586C399.63 1.35839 399.036 1.456 398.475 1.64309C397.906 1.82204 397.434 2.10673 397.052 2.48904C396.645 2.91201 396.336 3.37566 396.1 3.87184C395.872 4.36802 395.758 4.93741 395.758 5.57187C395.758 5.99485 395.913 6.41782 396.222 6.84079C396.377 7.05228 396.556 7.25563 396.751 7.45899C396.954 7.66234 397.19 7.8657 397.458 8.07718C397.727 8.2724 398.028 8.45948 398.361 8.63843C398.695 8.81738 399.053 8.99634 399.443 9.16715C399.825 9.33797 400.232 9.50065 400.655 9.6552C401.078 9.80975 401.525 9.95616 402.005 10.0863C402.445 10.2246 402.876 10.371 403.282 10.5337C403.697 10.6964 404.08 10.8835 404.446 11.0949C405.023 11.404 405.527 11.7701 405.967 12.1849C406.089 12.3151 406.211 12.4371 406.333 12.5754Z" fill="white"/>
</svg>
