<svg width="328" height="72" viewBox="0 0 328 72" fill="none" xmlns="http://www.w3.org/2000/svg">
<path d="M24.2225 25.4564L22.6954 30.2598V30.2859L18.5642 43.2342H17.8463V43.2603V43.2342H17.8202V43.2081L12.2336 29.679L7.82174 43.2538H7.14953L1.86316 29.568V29.5419L0.316406 25.476H3.40991L4.10171 27.4143C4.10171 27.4469 4.11476 27.4926 4.14739 27.5514L5.1394 30.299L8.39606 39.2793L12.9449 25.2475L13.6824 25.2214L19.1515 38.979L22.245 29.0524L23.3741 25.4499H24.2225V25.4564Z" fill="white"/>
<path d="M29.6268 42.8883H26.9053V25.4629H29.6268V33.4055L39.2271 33.3794V25.4564H41.9486V42.8818H39.2271V34.0712L29.6268 34.0451V42.8883Z" fill="white"/>
<path d="M48.1356 42.8883H45.4141V25.4629H48.1356V42.8883Z" fill="white"/>
<path d="M67.1787 25.4564V26.1743H60.4826V42.8622H57.7154V26.1743H50.9541V25.4564H67.1787Z" fill="white"/>
<path d="M70.0635 25.5021H81.191V26.22H72.8111V33.2815H79.4158V33.9537H72.7915V42.1966H81.1453V42.9145H70.0635V25.5021Z" fill="white"/>
<path d="M108.706 25.7827C109.32 25.9198 109.894 26.0829 110.416 26.2657C110.984 26.481 111.447 26.6964 111.8 26.9118V28.204C111.689 28.0213 111.493 27.8385 111.199 27.6623C110.906 27.4861 110.573 27.3229 110.194 27.1663C109.816 27.0097 109.424 26.8726 109.019 26.7486C108.608 26.6246 108.236 26.5202 107.897 26.4223C107.342 26.2983 106.781 26.2069 106.213 26.1482C105.724 26.1025 105.188 26.0829 104.621 26.0894C104.053 26.096 103.498 26.1873 102.956 26.357C102.819 26.3897 102.682 26.4288 102.552 26.481C102.421 26.5332 102.291 26.592 102.173 26.6572C101.344 27.0554 100.653 27.6036 100.098 28.2954C99.5301 28.9872 99.0797 29.8421 98.76 30.8602C98.5903 31.3497 98.4728 31.8783 98.401 32.4266C98.3292 32.9813 98.2966 33.5556 98.2966 34.1561C98.2966 34.7565 98.3292 35.3308 98.401 35.8855C98.4728 36.4403 98.5903 36.9624 98.76 37.4519C99.0863 38.4504 99.5301 39.3054 100.098 40.0167C100.653 40.7085 101.344 41.2568 102.173 41.6549C102.819 41.9616 103.576 42.1443 104.438 42.2096C105.299 42.2683 106.18 42.2357 107.081 42.0921C107.982 41.9551 108.85 41.7397 109.679 41.446C110.507 41.1523 111.219 40.7999 111.8 40.3822V41.4003C111.075 41.818 110.259 42.1509 109.352 42.4184C108.445 42.6795 107.512 42.8557 106.546 42.9406C105.587 43.0254 104.621 43.0189 103.648 42.9275C102.676 42.8361 101.769 42.6338 100.927 42.3271C99.7389 41.9094 98.7273 41.322 97.8789 40.5519C97.0305 39.7948 96.3778 38.8681 95.9145 37.7586C95.4511 36.6818 95.2227 35.4809 95.2227 34.1561C95.2227 32.8312 95.4511 31.6238 95.9145 30.5339C96.1429 29.9922 96.4235 29.4962 96.7433 29.0328C97.0696 28.5695 97.4416 28.1453 97.8724 27.7602C98.7208 26.9901 99.7324 26.3962 100.92 25.985C102.088 25.5673 103.407 25.365 104.869 25.365C105.175 25.365 105.489 25.3715 105.815 25.3911C106.141 25.4042 106.468 25.4303 106.807 25.4629C107.133 25.5086 107.447 25.5543 107.766 25.6C108.086 25.6457 108.399 25.7044 108.706 25.7827Z" fill="white"/>
<path d="M130.107 34.4171C130.062 35.6179 129.853 36.7078 129.487 37.6933C129.35 38.0457 129.194 38.3851 129.011 38.7114C128.835 39.0378 128.639 39.3445 128.423 39.6382C128.312 39.7948 128.201 39.9319 128.091 40.0624C127.973 40.1929 127.856 40.3169 127.732 40.4409C127.64 40.5323 127.549 40.6302 127.457 40.7281C127.366 40.826 127.255 40.9174 127.131 40.9957C126.42 41.5635 125.643 41.9942 124.788 42.2748C123.933 42.562 123.065 42.6925 122.191 42.6795C121.316 42.6664 120.442 42.4967 119.58 42.1835C118.719 41.8702 117.935 41.3938 117.224 40.7607C117.165 40.715 117.107 40.6628 117.054 40.6106C117.002 40.5584 116.943 40.4997 116.878 40.4344C116.121 39.6839 115.54 38.7636 115.123 37.6868C114.953 37.2104 114.816 36.7144 114.718 36.1988C114.62 35.6832 114.548 35.0893 114.496 34.4106V34.1821V33.9733C114.542 32.7855 114.751 31.6956 115.123 30.697C115.54 29.6202 116.121 28.7065 116.878 27.9494C116.937 27.8907 116.996 27.832 117.054 27.7732C117.107 27.721 117.165 27.6688 117.224 27.6231C117.701 27.2054 118.249 26.84 118.862 26.5267C119.476 26.2134 120.115 25.9719 120.781 25.8023C121.349 25.6652 121.93 25.6065 122.524 25.6326C123.117 25.6587 123.698 25.7435 124.266 25.9002C124.834 26.0568 125.389 26.2787 125.917 26.5724C126.446 26.8661 126.935 27.2185 127.386 27.6362C127.444 27.6819 127.503 27.7341 127.562 27.7863C127.614 27.8385 127.673 27.8972 127.738 27.9625C128.11 28.3475 128.436 28.7652 128.73 29.2221C129.024 29.6789 129.278 30.1749 129.494 30.7101C129.866 31.7086 130.068 32.8051 130.114 33.9863V34.4171H130.107ZM126.916 37.3931C127.053 36.9036 127.157 36.388 127.216 35.8594C127.275 35.3308 127.314 34.7695 127.333 34.1887C127.32 33.6013 127.281 33.0465 127.216 32.5179C127.157 31.9893 127.053 31.4802 126.916 31.0038C126.642 30.0314 126.244 29.1895 125.741 28.465C125.199 27.7732 124.586 27.2315 123.894 26.8465C123.861 26.8334 123.796 26.8008 123.685 26.7551C123.574 26.7094 123.45 26.6572 123.307 26.605C123.163 26.5528 123 26.5071 122.824 26.4679C122.648 26.4288 122.465 26.4092 122.282 26.4092C121.897 26.4223 121.545 26.4941 121.231 26.6181C120.918 26.7421 120.742 26.8204 120.709 26.8465C120.017 27.2315 119.404 27.7667 118.862 28.465C118.353 29.1895 117.962 30.0314 117.687 31.0038C117.413 31.9566 117.27 33.0204 117.27 34.1887C117.27 35.3569 117.407 36.4272 117.687 37.3996C117.962 38.3851 118.36 39.2205 118.862 39.9123C118.921 40.0037 119.038 40.1407 119.195 40.33C119.358 40.5127 119.574 40.7085 119.854 40.9043C120.128 41.1066 120.455 41.2763 120.833 41.4264C121.212 41.57 121.656 41.6483 122.158 41.6483C122.713 41.6483 123.196 41.5765 123.613 41.4264C124.031 41.2828 124.384 41.1066 124.677 40.9043C124.971 40.702 125.206 40.5127 125.382 40.33C125.558 40.1472 125.676 40.0037 125.741 39.9123C125.911 39.6839 126.067 39.4424 126.204 39.1879C126.341 38.9333 126.472 38.6527 126.596 38.346C126.655 38.1893 126.713 38.0392 126.772 37.8826C126.824 37.726 126.87 37.5628 126.916 37.3931Z" fill="white"/>
<path d="M135.667 42.1509H144.255V42.9145H133.108V25.5021H135.673V42.1509H135.667Z" fill="white"/>
<path d="M150.208 42.1509H158.796V42.9145H147.649V25.5021H150.214V42.1509H150.208Z" fill="white"/>
<path d="M176.477 42.7709H173.383L170.845 36.747C170.812 36.6687 170.766 36.6295 170.708 36.6295H164.547C164.468 36.6295 164.416 36.6687 164.384 36.747L162.191 42.7709H161.271L168.032 24.9734H168.678L176.477 42.7709ZM170.499 35.9182L167.405 28.576C166.962 29.7638 166.583 30.7623 166.283 31.5781C165.983 32.3939 165.735 33.0661 165.545 33.5948C165.349 34.1234 165.199 34.5411 165.095 34.8413C164.984 35.1415 164.906 35.3634 164.853 35.5135C164.801 35.6571 164.762 35.755 164.749 35.8007C164.736 35.8464 164.716 35.8855 164.703 35.9182H170.499Z" fill="white"/>
<path d="M194.111 42.8883L194.156 42.934H190.691L189.307 41.1327L186.677 37.6738C186.553 37.5171 186.442 37.3735 186.344 37.2365C186.247 37.0994 186.142 36.9624 186.031 36.8188C185.679 36.3424 185.365 35.9247 185.098 35.5723C184.83 35.2198 184.595 34.9196 184.393 34.6716H182.017V42.934H179.296V25.4825H185.666C186.573 25.4825 187.421 25.5934 188.204 25.8088C188.975 26.0242 189.621 26.3309 190.143 26.7355C190.678 27.1206 191.102 27.5905 191.415 28.1452C191.709 28.6869 191.853 29.3004 191.853 29.9922C191.853 31.1017 191.468 32.0284 190.697 32.7659C189.914 33.536 188.851 34.0647 187.513 34.3584L191.115 38.9921V39.0182C191.317 39.2792 191.513 39.5403 191.716 39.8014C191.918 40.0624 192.12 40.33 192.336 40.6106C192.662 41.0283 192.91 41.3481 193.099 41.5765C193.112 41.6092 193.125 41.6287 193.132 41.6353C193.138 41.6418 193.151 41.6614 193.164 41.694L194.111 42.8883ZM184.928 33.9537C186.129 33.9537 187.088 33.5882 187.813 32.8638C188.537 32.1524 188.896 31.1996 188.896 29.9922C188.896 28.8501 188.603 27.9233 188.022 27.212C187.421 26.5332 186.638 26.1939 185.666 26.1939H181.972V33.9472H184.928V33.9537Z" fill="white"/>
<path d="M211.334 42.1509H219.922V42.9145H208.775V25.5021H211.34V42.1509H211.334Z" fill="white"/>
<path d="M237.603 42.7709H234.509L231.971 36.747C231.938 36.6687 231.892 36.6295 231.834 36.6295H225.673C225.594 36.6295 225.542 36.6687 225.51 36.747L223.317 42.7709H222.396L229.158 24.9734H229.804L237.603 42.7709ZM231.625 35.9182L228.531 28.576C228.087 29.7638 227.709 30.7623 227.409 31.5781C227.109 32.3939 226.861 33.0661 226.671 33.5948C226.475 34.1234 226.325 34.5411 226.221 34.8413C226.11 35.1415 226.032 35.3634 225.979 35.5135C225.927 35.6571 225.888 35.755 225.875 35.8007C225.862 35.8464 225.842 35.8855 225.829 35.9182H231.625Z" fill="white"/>
<path d="M263.408 25.4564L261.881 30.2598V30.2859L257.75 43.2342H257.032V43.2603V43.2342H257.006V43.2081L251.419 29.679L247.007 43.2538H246.335L241.049 29.568V29.5419L239.502 25.476H242.595L243.287 27.4143C243.287 27.4469 243.3 27.4926 243.333 27.5514L244.325 30.299L247.582 39.2793L252.131 25.2475L252.868 25.2214L258.337 38.979L261.431 29.0524L262.56 25.4499H263.408V25.4564Z" fill="white"/>
<path d="M279.821 25.4825H280.539C280.291 25.8349 280.082 26.1482 279.906 26.4158C279.73 26.6834 279.541 26.964 279.338 27.2577C279.136 27.5514 278.914 27.8777 278.66 28.2497C278.405 28.6217 278.092 29.0785 277.726 29.6333C277.354 30.188 276.904 30.8668 276.362 31.663C275.821 32.4657 275.168 33.4316 274.398 34.5737V42.8818H271.65V41.1523C271.65 40.5519 271.644 39.7883 271.637 38.855C271.631 37.9218 271.624 36.7797 271.624 35.4287L265.555 25.4564H268.922L274.111 33.9994L279.821 25.4825Z" fill="white"/>
<path d="M283.189 25.5021H294.317V26.22H285.937V33.2815H292.542V33.9537H285.917V42.1966H294.271V42.9145H283.189V25.5021Z" fill="white"/>
<path d="M312.878 42.8883L312.924 42.934H309.459L308.075 41.1327L305.445 37.6738C305.321 37.5171 305.21 37.3735 305.112 37.2365C305.014 37.0994 304.91 36.9624 304.799 36.8188C304.446 36.3424 304.133 35.9247 303.865 35.5723C303.598 35.2198 303.363 34.9196 303.161 34.6716H300.785V42.934H298.063V25.4825H304.433C305.34 25.4825 306.189 25.5934 306.972 25.8088C307.742 26.0242 308.388 26.3309 308.91 26.7355C309.445 27.1206 309.87 27.5905 310.183 28.1452C310.477 28.6869 310.62 29.3004 310.62 29.9922C310.62 31.1017 310.235 32.0284 309.465 32.7659C308.682 33.536 307.618 34.0647 306.28 34.3584L309.883 38.9921V39.0182C310.085 39.2792 310.281 39.5403 310.483 39.8014C310.685 40.0624 310.888 40.33 311.103 40.6106C311.429 41.0283 311.677 41.3481 311.867 41.5765C311.88 41.6092 311.893 41.6287 311.899 41.6353C311.906 41.6418 311.919 41.6614 311.932 41.694L312.878 42.8883ZM303.689 33.9537C304.89 33.9537 305.849 33.5882 306.574 32.8638C307.298 32.1524 307.657 31.1996 307.657 29.9922C307.657 28.8501 307.364 27.9233 306.783 27.212C306.182 26.5332 305.399 26.1939 304.427 26.1939H300.733V33.9472H303.689V33.9537Z" fill="white"/>
<path d="M326.336 35.0632C326.766 35.4939 327.099 35.9638 327.328 36.4729C327.556 36.982 327.674 37.5106 327.674 38.0653C327.674 38.8224 327.536 39.4946 327.256 40.095C326.962 40.6955 326.564 41.2111 326.055 41.6418C325.533 42.0725 324.906 42.3989 324.188 42.6208C323.497 42.8557 322.694 42.9797 321.787 42.9797C321.513 42.9797 321.232 42.9732 320.945 42.9536C320.658 42.9405 320.371 42.9144 320.077 42.8818C319.783 42.8492 319.503 42.8165 319.235 42.7839C318.967 42.7448 318.7 42.6991 318.439 42.6403C317.949 42.549 317.46 42.425 316.983 42.2618C316.494 42.0921 316.096 41.9224 315.809 41.7527V40.2974C316.285 40.6955 316.774 41.0218 317.277 41.2763C317.78 41.5308 318.269 41.7332 318.752 41.8767C319.235 42.0203 319.705 42.1247 320.162 42.177C320.619 42.2292 321.03 42.2553 321.395 42.2553C321.441 42.2683 321.513 42.2814 321.604 42.2814H321.767C322.244 42.2814 322.681 42.2357 323.085 42.1443H323.112C323.653 42.0073 324.156 41.7658 324.632 41.4264C325.337 40.8586 325.696 40.1081 325.696 39.1879C325.696 38.7702 325.572 38.3851 325.324 38.0327C325.109 37.6933 324.769 37.3409 324.306 36.9689C323.843 36.5969 323.314 36.2836 322.714 36.0226C322.08 35.7289 321.389 35.4744 320.638 35.259C320.39 35.1807 320.155 35.1024 319.92 35.0306C319.692 34.9523 319.463 34.8609 319.248 34.7565L318.693 34.4824C318.093 34.156 317.584 33.7906 317.173 33.3729C316.742 32.9421 316.429 32.4983 316.226 32.035C315.998 31.5585 315.88 31.0625 315.88 30.56C315.88 29.7899 316.017 29.085 316.298 28.4389C316.605 27.7602 317.003 27.2054 317.499 26.7747C317.76 26.5463 318.041 26.3374 318.341 26.1612C318.641 25.985 318.974 25.8349 319.346 25.7109C320.038 25.4629 320.84 25.3389 321.748 25.3389C322.165 25.3389 322.576 25.365 322.994 25.4107C323.412 25.4564 323.843 25.5412 324.286 25.6652C325.194 25.8936 325.964 26.2069 326.597 26.5854V27.5057C326.414 27.3229 326.133 27.1337 325.768 26.9379C325.396 26.7421 324.978 26.5789 324.508 26.4419C324.038 26.3048 323.536 26.1939 323.007 26.1155C322.479 26.0372 321.963 26.0111 321.46 26.0372C320.958 26.0633 320.481 26.1416 320.031 26.2917C319.574 26.4353 319.196 26.6638 318.889 26.9705C318.563 27.3099 318.315 27.6819 318.125 28.08C317.943 28.4781 317.851 28.9349 317.851 29.444C317.851 29.7834 317.975 30.1227 318.223 30.4621C318.347 30.6318 318.491 30.795 318.648 30.9581C318.811 31.1213 319 31.2844 319.215 31.4541C319.431 31.6107 319.672 31.7609 319.94 31.9044C320.207 32.048 320.495 32.1916 320.808 32.3286C321.115 32.4657 321.441 32.5962 321.78 32.7202C322.12 32.8442 322.479 32.9617 322.864 33.0661C323.216 33.1771 323.562 33.2946 323.888 33.4251C324.221 33.5556 324.528 33.7057 324.822 33.8754C325.285 34.1234 325.69 34.4171 326.042 34.7499C326.14 34.8544 326.238 34.9523 326.336 35.0632Z" fill="white"/>
<path d="M94.5361 70.6559H92V54.4541H94.5361V70.6559Z" fill="white"/>
<path d="M112.743 54.4541H113.497V71.1357H112.7C112.4 70.733 111.963 70.1589 111.381 69.3964C110.798 68.6339 110.156 67.7942 109.453 66.8603C108.742 65.9264 108.005 64.9583 107.234 63.9301C106.463 62.9105 105.718 61.9338 104.998 60.9999C104.278 60.066 103.636 59.2264 103.053 58.4638C102.47 57.7013 102.033 57.1272 101.733 56.7246V70.6559H100.979V54.4541H103.301L112.743 66.886V54.4541Z" fill="white"/>
<path d="M122.253 70.6559H119.717V54.4541H122.253V70.6559Z" fill="white"/>
<path d="M143.176 54.4541V55.1224H136.947V70.6387H134.368V55.1224H128.079V54.4541H143.176Z" fill="white"/>
<path d="M151.614 70.6559H149.078V54.4541H151.614V70.6559Z" fill="white"/>
<path d="M171.321 70.5531H168.442L166.078 64.9497C166.052 64.8812 166.009 64.8383 165.949 64.8383H160.217C160.149 64.8383 160.097 64.8726 160.072 64.9497L158.033 70.5531H157.176L163.465 54H164.064L171.321 70.5531ZM165.761 64.1786L162.882 57.35C162.471 58.4553 162.119 59.3806 161.845 60.1431C161.563 60.9057 161.34 61.5311 161.16 62.0195C160.98 62.5164 160.843 62.902 160.74 63.1762C160.637 63.4589 160.56 63.6645 160.517 63.8016C160.466 63.9387 160.432 64.0244 160.423 64.0672C160.406 64.1101 160.397 64.1443 160.38 64.1786H165.761Z" fill="white"/>
<path d="M191.43 54.4541V55.1224H185.201V70.6387H182.622V55.1224H176.333V54.4541H191.43Z" fill="white"/>
<path d="M199.869 70.6559H197.333V54.4541H199.869V70.6559Z" fill="white"/>
<path d="M219.078 54.2828H219.875L218.547 57.9069L213.8 70.7844H213.132L207.657 58.6352L206.929 57.0245L206.415 55.9278L205.618 54.257H208.625L209.439 56.1248L210.253 57.9926L210.365 58.2325L214.417 67.3744L217.699 58.2325L218.067 57.2044C218.093 57.1358 218.119 57.0673 218.127 56.9988C218.144 56.9388 218.161 56.8702 218.196 56.7931L219.078 54.2828Z" fill="white"/>
<path d="M225.65 54.4969H236V55.1652H228.212V61.7367H234.347V62.3622H228.186V70.0218H235.958V70.6901H225.65V54.4969Z" fill="white"/>
<path d="M81.0558 65.1116C82.1912 65.1116 83.1116 64.1912 83.1116 63.0558C83.1116 61.9204 82.1912 61 81.0558 61C79.9204 61 79 61.9204 79 63.0558C79 64.1912 79.9204 65.1116 81.0558 65.1116Z" fill="white"/>
<path d="M245.167 65.1116C246.303 65.1116 247.223 64.1912 247.223 63.0558C247.223 61.9204 246.303 61 245.167 61C244.032 61 243.111 61.9204 243.111 63.0558C243.111 64.1912 244.032 65.1116 245.167 65.1116Z" fill="white"/>
<path d="M136.593 11.131C136.593 10.8568 136.678 10.6284 136.841 10.4522C137.004 10.276 137.226 10.1846 137.493 10.1846C137.754 10.1846 137.963 10.276 138.126 10.4522C138.29 10.6284 138.368 10.8568 138.368 11.131C138.368 11.3985 138.29 11.6204 138.133 11.7966C137.976 11.9729 137.761 12.0642 137.48 12.0642C137.213 12.0642 136.997 11.9729 136.834 11.7966C136.671 11.6204 136.593 11.3985 136.593 11.131Z" fill="white"/>
<path d="M149.11 11.131C149.11 10.8568 149.195 10.6284 149.358 10.4522C149.522 10.276 149.743 10.1846 150.011 10.1846C150.272 10.1846 150.481 10.276 150.644 10.4522C150.807 10.6284 150.886 10.8568 150.886 11.131C150.886 11.3985 150.807 11.6204 150.651 11.7966C150.494 11.9729 150.279 12.0642 149.998 12.0642C149.73 12.0642 149.515 11.9729 149.352 11.7966C149.189 11.6204 149.11 11.3985 149.11 11.131Z" fill="white"/>
<path d="M59.8752 6.77788C60.5148 7.28693 60.8346 7.90694 60.8346 8.63789C60.8346 9.08821 60.7367 9.49938 60.5344 9.87138C60.43 10.0606 60.306 10.2369 60.1689 10.387C60.0318 10.5371 59.8687 10.6807 59.6729 10.8177C59.3074 11.0788 58.8636 11.2746 58.3285 11.4181C58.0739 11.4964 57.7933 11.5552 57.5061 11.5878C57.2125 11.627 56.9122 11.6466 56.599 11.6466H52.2002V0.845398L56.1813 0.858451C56.7426 0.858451 57.2581 0.917189 57.715 1.02814C58.1653 1.13256 58.5634 1.30225 58.9028 1.53067C59.2487 1.77214 59.5032 2.03973 59.6794 2.33341C59.8622 2.64668 59.9535 2.99258 59.9535 3.36458C59.9535 3.96501 59.7121 4.47407 59.2356 4.89828C58.9942 5.12018 58.72 5.29639 58.4003 5.43997C58.0805 5.58355 57.7085 5.70102 57.2908 5.79892C58.3611 5.9425 59.2291 6.26882 59.8752 6.77788ZM53.9036 5.71408H55.744C56.488 5.71408 57.0884 5.49871 57.5453 5.06797C58.0021 4.6568 58.2306 4.08901 58.2306 3.37111C58.2306 2.7511 58.0478 2.24204 57.6758 1.85046C57.2842 1.47846 56.7882 1.28919 56.1943 1.28919H53.9101V5.71408H53.9036ZM58.3154 10.4849C58.7918 10.028 59.0268 9.40801 59.0268 8.63789C59.0268 8.26589 58.9419 7.91999 58.7723 7.60673C58.6222 7.29346 58.3872 7.02588 58.0739 6.80398C57.7802 6.57556 57.4148 6.40587 56.971 6.2884C56.7491 6.22966 56.5272 6.18398 56.2922 6.15134C56.0573 6.11871 55.8093 6.09913 55.5417 6.09913H53.9166V11.1962L56.4423 11.1701C57.2386 11.1701 57.8586 10.9417 58.3154 10.4849Z" fill="white"/>
<path d="M71.962 11.6466L71.9881 11.6727H69.8409L68.9794 10.5566L67.3478 8.40947C67.2695 8.31158 67.2042 8.22021 67.139 8.13536C67.0737 8.05052 67.015 7.96568 66.9432 7.87431C66.7213 7.58062 66.532 7.31957 66.3623 7.09767C66.1926 6.87577 66.0491 6.69303 65.9251 6.5364H64.4501V11.6661H62.7598V0.845398H66.7147C67.276 0.845398 67.8047 0.910661 68.2876 1.04772C68.764 1.18477 69.1687 1.37404 69.4885 1.62204C69.8213 1.86351 70.0824 2.15067 70.2782 2.49657C70.4609 2.82942 70.5523 3.21447 70.5523 3.64522C70.5523 4.33048 70.3108 4.90481 69.8344 5.36818C69.3449 5.8446 68.6857 6.17745 67.8569 6.36019L70.0889 9.23832V9.25138C70.2129 9.41453 70.3369 9.57769 70.4609 9.74085C70.5849 9.90401 70.7154 10.0672 70.8459 10.2434C71.0483 10.4979 71.2049 10.7002 71.3158 10.8438C71.3224 10.8634 71.3354 10.8764 71.3354 10.8764C71.342 10.883 71.3485 10.896 71.355 10.9156L71.962 11.6466ZM66.2644 6.09913C67.0084 6.09913 67.6023 5.87724 68.0527 5.42692C68.503 4.98312 68.7249 4.38922 68.7249 3.64522C68.7249 2.93384 68.5421 2.35952 68.1832 1.92225C67.8112 1.50456 67.3217 1.28919 66.7213 1.28919H64.4305V6.09913H66.2644Z" fill="white"/>
<path d="M83.122 11.5747H81.2033L79.6304 7.83512C79.6108 7.78944 79.5847 7.76333 79.5456 7.76333H75.7211C75.6754 7.76333 75.6428 7.78944 75.6232 7.83512L74.2657 11.5747H73.6914L77.8879 0.532104H78.286L83.122 11.5747ZM79.415 7.31954L77.4963 2.76413C77.2222 3.50161 76.9872 4.12161 76.8045 4.62414C76.6152 5.1332 76.4651 5.55089 76.3476 5.87721C76.2302 6.20353 76.1323 6.46458 76.067 6.65385C76.0017 6.84311 75.9495 6.98017 75.9169 7.07154C75.8843 7.16291 75.8647 7.22164 75.8516 7.24775C75.8451 7.27385 75.8321 7.29996 75.8255 7.31954H79.415Z" fill="white"/>
<path d="M85.2305 0.858429H92.7815L86.5814 11.2027H92.3703C92.3703 11.2419 92.3638 11.2811 92.3573 11.3202C92.3507 11.3855 92.3312 11.4964 92.3116 11.6465H84.3037L90.5038 1.30222H85.1195L85.2305 0.858429Z" fill="white"/>
<path d="M96.2597 11.6465H94.5693V0.832336H96.2597V11.6465Z" fill="white"/>
<path d="M99.9801 11.1897H105.306V11.6596H98.3877V0.858429H99.9801V11.1897Z" fill="white"/>
<path d="M117.483 7.30648H113.815V6.34711H117.483V7.30648Z" fill="white"/>
<path d="M133.767 0.904114H134.309V8.62482C134.309 9.10125 134.23 9.53851 134.08 9.9301C134.002 10.1194 133.911 10.3021 133.793 10.4653C133.676 10.6349 133.539 10.7851 133.376 10.9156C133.082 11.1701 132.664 11.3855 132.129 11.5486C131.881 11.627 131.6 11.6792 131.294 11.7183C130.98 11.7575 130.648 11.7771 130.282 11.7771C129.518 11.7771 128.879 11.6857 128.363 11.503C127.828 11.3333 127.397 11.0853 127.071 10.772C126.738 10.4653 126.49 10.0867 126.327 9.62336C126.249 9.40146 126.19 9.17304 126.157 8.92503C126.118 8.67703 126.099 8.41598 126.099 8.13534V0.904114H127.815V8.46819C127.815 9.27746 128.024 9.93662 128.448 10.4457C128.866 10.9417 129.558 11.1897 130.524 11.1897C131.098 11.1897 131.6 11.1244 132.025 10.9874C132.423 10.8438 132.756 10.6545 133.01 10.4261C133.258 10.1846 133.447 9.90399 133.584 9.56462C133.702 9.21872 133.754 8.84672 133.754 8.43556V0.904114H133.767Z" fill="white"/>
<path d="M146.434 6.79091C146.702 7.05849 146.904 7.35218 147.048 7.66544C147.191 7.97871 147.263 8.31155 147.263 8.65093C147.263 9.12082 147.178 9.53851 147.002 9.91052C146.819 10.2825 146.571 10.6023 146.258 10.8699C145.932 11.1375 145.547 11.3398 145.096 11.4768C144.666 11.627 144.17 11.6987 143.608 11.6987C143.439 11.6987 143.262 11.6922 143.086 11.6857C142.91 11.6792 142.727 11.6596 142.551 11.64C142.368 11.6204 142.192 11.6008 142.029 11.5747C141.859 11.5486 141.696 11.5225 141.533 11.4834C141.226 11.4312 140.926 11.3528 140.632 11.2484C140.326 11.144 140.084 11.0396 139.901 10.9352V10.0345C140.195 10.2825 140.502 10.4848 140.809 10.6415C141.122 10.7981 141.422 10.9221 141.722 11.0135C142.022 11.1048 142.316 11.1636 142.597 11.2027C142.877 11.2354 143.132 11.2549 143.36 11.2549C143.386 11.2615 143.432 11.268 143.491 11.268H143.589C143.882 11.268 144.157 11.2419 144.405 11.1832H144.418C144.75 11.0983 145.064 10.9482 145.364 10.7394C145.801 10.3869 146.023 9.92357 146.023 9.34925C146.023 9.09472 145.945 8.85324 145.795 8.63135C145.658 8.4225 145.449 8.2006 145.162 7.97218C144.874 7.74376 144.548 7.54797 144.176 7.38481C143.785 7.20207 143.354 7.04544 142.89 6.91491C142.74 6.86922 142.59 6.81701 142.447 6.77133C142.303 6.72564 142.166 6.6669 142.029 6.60164L141.683 6.43196C141.311 6.22964 140.998 6.00121 140.737 5.74669C140.469 5.4791 140.273 5.205 140.149 4.91784C140.006 4.62415 139.934 4.31741 139.934 4.00414C139.934 3.52772 140.019 3.09045 140.195 2.68581C140.384 2.26813 140.632 1.92223 140.939 1.65465C141.102 1.51107 141.278 1.38706 141.461 1.27612C141.65 1.16517 141.853 1.0738 142.081 0.995482C142.512 0.845375 143.008 0.767059 143.569 0.767059C143.83 0.767059 144.085 0.780112 144.346 0.812744C144.6 0.838849 144.868 0.89106 145.149 0.969377C145.71 1.11296 146.186 1.30222 146.578 1.5437V2.11802C146.46 2.00054 146.291 1.8896 146.062 1.76559C145.834 1.64812 145.573 1.5437 145.279 1.45886C144.985 1.37401 144.679 1.30875 144.346 1.25654C144.02 1.21085 143.693 1.19127 143.386 1.20433C143.073 1.21738 142.78 1.26959 142.499 1.36096C142.218 1.45233 141.983 1.59591 141.787 1.78517C141.585 1.99402 141.429 2.22244 141.318 2.47044C141.2 2.71845 141.148 2.99908 141.148 3.31887C141.148 3.52772 141.226 3.73656 141.376 3.95193C141.455 4.05635 141.539 4.16078 141.644 4.25867C141.742 4.35657 141.859 4.46099 141.996 4.56541C142.127 4.66331 142.284 4.75468 142.447 4.84605C142.616 4.93742 142.793 5.02226 142.982 5.11363C143.171 5.19847 143.373 5.28331 143.582 5.3551C143.791 5.43342 144.02 5.50521 144.254 5.57047C144.476 5.63574 144.685 5.71405 144.894 5.79237C145.096 5.87069 145.292 5.96858 145.475 6.073C145.762 6.22311 146.017 6.40585 146.232 6.61469C146.31 6.66038 146.376 6.72564 146.434 6.79091Z" fill="white"/>
<path d="M194.788 11.5747H192.869L191.296 7.83512C191.277 7.78944 191.251 7.76333 191.212 7.76333H187.387C187.341 7.76333 187.309 7.78944 187.289 7.83512L185.932 11.5747H185.357L189.554 0.532104H189.952L194.788 11.5747ZM191.075 7.31954L189.156 2.76413C188.882 3.50161 188.647 4.12161 188.464 4.62414C188.275 5.1332 188.125 5.55089 188.007 5.87721C187.89 6.20353 187.792 6.46458 187.727 6.65385C187.661 6.84311 187.609 6.98017 187.576 7.07154C187.544 7.16291 187.524 7.22164 187.511 7.24775C187.505 7.27385 187.492 7.29996 187.485 7.31954H191.075Z" fill="white"/>
<path d="M204.238 0.832336H204.741V11.9598H204.212C204.01 11.6922 203.716 11.3072 203.331 10.7981C202.946 10.2891 202.515 9.72779 202.045 9.10779C201.576 8.48778 201.079 7.83514 200.564 7.14987C200.048 6.4646 199.552 5.81849 199.076 5.19196C198.599 4.57195 198.169 4.01068 197.777 3.50163C197.392 2.99257 197.098 2.60751 196.896 2.33993V11.6465H196.394V0.832336H197.94L204.245 9.12737V0.832336H204.238Z" fill="white"/>
<path d="M214.629 2.33339C215.151 2.80329 215.562 3.37108 215.849 4.03677C216.143 4.68941 216.293 5.42036 216.293 6.24269C216.293 7.05196 216.162 7.78944 215.908 8.4486C215.771 8.78145 215.614 9.08819 215.438 9.37535C215.255 9.65598 215.053 9.91704 214.824 10.1585C214.374 10.6284 213.819 10.9874 213.147 11.2484C212.814 11.3789 212.462 11.4834 212.103 11.5486C211.737 11.6139 211.359 11.6465 210.954 11.6465H206.627C206.627 11.4377 206.627 11.1244 206.627 10.7133C206.627 10.3021 206.627 9.8322 206.627 9.29703C206.627 8.76187 206.627 8.18755 206.621 7.57407C206.614 6.96059 206.614 6.34058 206.614 5.7271C206.614 5.11362 206.614 4.51972 206.614 3.9454C206.614 3.37108 206.614 2.86202 206.614 2.4117C206.614 1.96138 206.614 1.59591 206.621 1.31527C206.627 1.03464 206.627 0.878004 206.627 0.851898L210.295 0.864951C211.183 0.864951 211.999 0.995479 212.743 1.25001C213.473 1.50454 214.1 1.87001 214.629 2.33339ZM214.309 8.26587C214.479 7.66544 214.57 6.99322 214.57 6.24921C214.57 5.87721 214.544 5.51826 214.492 5.17889C214.439 4.83952 214.361 4.51972 214.257 4.21298C214.067 3.61908 213.774 3.1035 213.382 2.65318C213.193 2.43128 212.984 2.24202 212.762 2.07233C212.54 1.90265 212.299 1.75907 212.038 1.63506C211.503 1.40664 210.922 1.28917 210.289 1.28917H208.298V11.2027H210.961C211.496 11.2027 211.985 11.0853 212.436 10.8438C212.886 10.5958 213.265 10.2564 213.565 9.82567C213.891 9.40798 214.139 8.88587 214.309 8.26587Z" fill="white"/>
<path d="M232.759 0.904114H233.301V8.62482C233.301 9.10125 233.223 9.53851 233.073 9.9301C232.994 10.1194 232.903 10.3021 232.785 10.4653C232.668 10.6349 232.531 10.7851 232.368 10.9156C232.074 11.1701 231.656 11.3855 231.121 11.5486C230.873 11.627 230.593 11.6792 230.286 11.7183C229.973 11.7575 229.64 11.7771 229.274 11.7771C228.511 11.7771 227.871 11.6857 227.355 11.503C226.82 11.3333 226.39 11.0853 226.063 10.772C225.73 10.4653 225.482 10.0867 225.319 9.62336C225.241 9.40146 225.182 9.17304 225.15 8.92503C225.11 8.67703 225.091 8.41598 225.091 8.13534V0.904114H226.807V8.46819C226.807 9.27746 227.016 9.93662 227.44 10.4457C227.858 10.9417 228.55 11.1897 229.516 11.1897C230.09 11.1897 230.593 11.1244 231.017 10.9874C231.415 10.8438 231.748 10.6545 232.002 10.4261C232.25 10.1846 232.44 9.90399 232.577 9.56462C232.694 9.21872 232.746 8.84672 232.746 8.43556V0.904114H232.759Z" fill="white"/>
<path d="M243.299 0.832336H243.801V11.9598H243.273C243.07 11.6922 242.777 11.3072 242.392 10.7981C242.007 10.2891 241.576 9.72779 241.106 9.10779C240.636 8.48778 240.14 7.83514 239.624 7.14987C239.109 6.4646 238.613 5.81849 238.136 5.19196C237.66 4.57195 237.229 4.01068 236.838 3.50163C236.453 2.99257 236.159 2.60751 235.957 2.33993V11.6465H235.454V0.832336H237.001L243.305 9.12737V0.832336H243.299Z" fill="white"/>
<path d="M253.689 2.33339C254.211 2.80329 254.622 3.37108 254.91 4.03677C255.203 4.68941 255.353 5.42036 255.353 6.24269C255.353 7.05196 255.223 7.78944 254.968 8.4486C254.831 8.78145 254.675 9.08819 254.498 9.37535C254.316 9.65598 254.113 9.91704 253.885 10.1585C253.435 10.6284 252.88 10.9874 252.208 11.2484C251.875 11.3789 251.522 11.4834 251.163 11.5486C250.805 11.6139 250.419 11.6465 250.015 11.6465H245.688C245.688 11.4377 245.688 11.1244 245.688 10.7133C245.688 10.3021 245.688 9.8322 245.688 9.29703C245.688 8.76187 245.688 8.18755 245.681 7.57407C245.675 6.96059 245.675 6.34058 245.675 5.7271C245.675 5.11362 245.675 4.51972 245.675 3.9454C245.675 3.37108 245.675 2.86202 245.675 2.4117C245.675 1.96138 245.675 1.59591 245.681 1.31527C245.688 1.03464 245.688 0.878004 245.688 0.851898L249.356 0.864951C250.243 0.864951 251.059 0.995479 251.803 1.25001C252.528 1.50454 253.161 1.87001 253.689 2.33339ZM253.369 8.26587C253.539 7.66544 253.63 6.99322 253.63 6.24921C253.63 5.87721 253.604 5.51826 253.552 5.17889C253.5 4.83952 253.422 4.51972 253.317 4.21298C253.128 3.61908 252.834 3.1035 252.443 2.65318C252.253 2.43128 252.045 2.24202 251.823 2.07233C251.601 1.90265 251.359 1.75907 251.098 1.63506C250.563 1.40664 249.982 1.28917 249.349 1.28917H247.359V11.2027H250.021C250.557 11.2027 251.046 11.0853 251.496 10.8438C251.947 10.5958 252.325 10.2564 252.625 9.82567C252.952 9.40798 253.2 8.88587 253.369 8.26587Z" fill="white"/>
<path d="M257.351 0.858429H264.255V1.30222H259.054V5.68795H263.153V6.10564H259.041V11.2158H264.223V11.6596H257.351V0.858429Z" fill="white"/>
<path d="M275.774 11.6466L275.801 11.6727H273.653L272.792 10.5566L271.16 8.40947C271.082 8.31158 271.017 8.22021 270.951 8.13536C270.886 8.05052 270.827 7.96568 270.756 7.87431C270.534 7.58062 270.345 7.31957 270.175 7.09767C270.005 6.87577 269.862 6.69303 269.738 6.5364H268.263V11.6661H266.572V0.845398H270.527C271.089 0.845398 271.617 0.910661 272.1 1.04772C272.577 1.18477 272.981 1.37404 273.301 1.62204C273.634 1.86351 273.895 2.15067 274.091 2.49657C274.273 2.82942 274.365 3.21447 274.365 3.64522C274.365 4.33048 274.123 4.90481 273.647 5.36818C273.157 5.8446 272.498 6.17745 271.669 6.36019L273.901 9.23832V9.25138C274.025 9.41453 274.149 9.57769 274.273 9.74085C274.397 9.90401 274.528 10.0672 274.658 10.2434C274.861 10.4979 275.017 10.7002 275.128 10.8438C275.135 10.8634 275.148 10.8764 275.148 10.8764C275.154 10.883 275.161 10.896 275.167 10.9156L275.774 11.6466ZM270.07 6.09913C270.814 6.09913 271.408 5.87724 271.859 5.42692C272.309 4.98312 272.531 4.38922 272.531 3.64522C272.531 2.93384 272.348 2.35952 271.989 1.92225C271.617 1.50456 271.128 1.28919 270.527 1.28919H268.236V6.09913H270.07Z" fill="white"/>
<path d="M158.77 8.74363C159.311 8.00615 159.827 7.3013 160.316 6.63561C160.806 5.96992 161.269 5.33686 161.713 4.74296C161.98 4.38401 162.215 4.05769 162.431 3.77053C162.64 3.48337 162.822 3.23537 162.979 3.03305C163.142 2.83073 163.299 2.62189 163.449 2.4261C163.599 2.22378 163.743 2.04104 163.886 1.86483C164.03 1.68862 164.16 1.52546 164.278 1.36882C164.395 1.21219 164.513 1.07514 164.624 0.951135C164.852 0.696606 164.989 0.553026 165.041 0.533447H165.302V8.32594H167.397V9.05037H165.302V11.5761H163.684V9.05037H158.77V8.74363ZM159.709 8.32594L163.671 8.29331V3.11789V2.96779C163.508 3.19621 163.338 3.41811 163.168 3.64653C162.999 3.87495 162.822 4.11643 162.633 4.37096C162.45 4.61896 162.261 4.86696 162.078 5.10844C161.896 5.35644 161.713 5.60444 161.537 5.84592C161.36 6.08087 161.191 6.31582 161.021 6.54424C160.851 6.77267 160.682 7.00109 160.519 7.21646C160.355 7.44488 160.205 7.6472 160.075 7.82994C159.944 8.0192 159.82 8.18236 159.709 8.32594Z" fill="white"/>
<path d="M177.793 6.22312C177.767 6.99976 177.656 7.71113 177.461 8.34419C177.389 8.57261 177.304 8.79451 177.206 9.00335C177.115 9.2122 177.01 9.41452 176.893 9.60378C176.834 9.70168 176.775 9.79305 176.717 9.87789C176.658 9.96273 176.593 10.0476 176.527 10.1259C176.475 10.1846 176.429 10.2499 176.377 10.3152C176.325 10.3804 176.273 10.4392 176.208 10.4848C175.829 10.8503 175.411 11.131 174.961 11.3137C174.504 11.4964 174.047 11.5878 173.577 11.5747C173.108 11.5617 172.644 11.4573 172.187 11.255C171.73 11.0526 171.313 10.7459 170.934 10.3347C170.902 10.3021 170.869 10.2695 170.843 10.2368C170.817 10.2042 170.784 10.165 170.751 10.1259C170.347 9.63641 170.04 9.04251 169.818 8.34419C169.727 8.03745 169.655 7.71113 169.603 7.37829C169.551 7.04544 169.511 6.66038 169.485 6.21659V6.06648V5.92943C169.511 5.15932 169.622 4.45447 169.818 3.80836C170.04 3.11003 170.353 2.51613 170.751 2.02665C170.784 1.9875 170.817 1.94834 170.843 1.91571C170.869 1.88307 170.902 1.85044 170.934 1.81781C171.189 1.55023 171.476 1.31528 171.809 1.10643C172.135 0.904117 172.474 0.747484 172.827 0.636536C173.127 0.545166 173.44 0.512534 173.754 0.525587C174.067 0.53864 174.38 0.597378 174.68 0.695273C174.981 0.793169 175.274 0.936749 175.561 1.12601C175.842 1.31528 176.103 1.5437 176.345 1.81128C176.377 1.84392 176.41 1.87655 176.436 1.90918C176.462 1.94181 176.495 1.98097 176.527 2.02013C176.723 2.26813 176.899 2.54224 177.056 2.83593C177.213 3.12961 177.343 3.44941 177.461 3.80183C177.656 4.44794 177.767 5.15932 177.793 5.9229V6.22312ZM176.097 8.1484C176.168 7.82861 176.221 7.49576 176.26 7.15639C176.292 6.81049 176.312 6.45154 176.318 6.07301C176.312 5.69448 176.292 5.33553 176.26 4.98963C176.227 4.64373 176.175 4.31741 176.097 4.01067C175.946 3.38414 175.738 2.83593 175.47 2.36603C175.183 1.91571 174.857 1.56981 174.485 1.32181C174.465 1.30875 174.432 1.28917 174.374 1.26307C174.315 1.23044 174.25 1.1978 174.171 1.16517C174.093 1.13254 174.008 1.09991 173.91 1.0738C173.819 1.0477 173.721 1.03465 173.623 1.03465C173.421 1.0477 173.232 1.08686 173.062 1.1717C172.892 1.25002 172.801 1.30223 172.788 1.32181C172.422 1.56981 172.089 1.92223 171.802 2.36603C171.535 2.83593 171.326 3.38414 171.176 4.01067C171.026 4.63068 170.954 5.31595 170.954 6.07301C170.954 6.83007 171.026 7.52187 171.176 8.1484C171.326 8.78798 171.535 9.32967 171.802 9.77999C171.835 9.83873 171.894 9.9301 171.978 10.0476C172.063 10.165 172.181 10.2891 172.331 10.4196C172.481 10.5501 172.651 10.6611 172.853 10.759C173.055 10.8568 173.29 10.9025 173.558 10.9025C173.851 10.9025 174.113 10.8568 174.334 10.759C174.556 10.6611 174.746 10.5501 174.902 10.4196C175.059 10.2891 175.183 10.165 175.274 10.0476C175.366 9.9301 175.431 9.83873 175.464 9.77999C175.555 9.62989 175.633 9.47325 175.712 9.31009C175.783 9.14693 175.855 8.9642 175.92 8.76188C175.953 8.66398 175.986 8.55956 176.012 8.46166C176.044 8.36377 176.07 8.25935 176.097 8.1484Z" fill="white"/>
</svg>
